# xmcd
#
# Track frame offsets: 
#        150
#        28761
#        59422
#        76697
#        98514
#        118457
#        135166
#        148957
#        162739
#        178585
#        197088
#        208606
#        229562
#        243694
#        255729
#        272730
#
# Disc length: 3873 seconds
#
# Revision: 1
# Processed by: cddbd v1.5.2PL0 Copyright (c) Steve Scherf et al.
# Submitted via: ExactAudioCopy v0.99pb5
#
DISCID=e80f1f10
DTITLE=Holiday Billie - Giganci Jazzu
DYEAR=2010
DGENRE=Jazz
TTITLE0=Body and Soul
TTITLE1=Embraceable You
TTITLE2=Moonlight in Vermont
TTITLE3=Sophisticated Lady
TTITLE4=We'll Be Together Again
TTITLE5=Stormy Weather
TTITLE6=April in Paris
TTITLE7=Strange Fruit
TTITLE8=Good Morning Heartache
TTITLE9=When It's Sleepy Time Down South
TTITLE10=All of You
TTITLE11=A Foggy Day
TTITLE12=Willow Weep for Me
TTITLE13=Billie's Blues
TTITLE14=Lady Sings the Blues
TTITLE15=God Bless the Child
EXTD=YEAR: 2010
EXTT0=
EXTT1=
EXTT2=
EXTT3=
EXTT4=
EXTT5=
EXTT6=
EXTT7=
EXTT8=
EXTT9=
EXTT10=
EXTT11=
EXTT12=
EXTT13=
EXTT14=
EXTT15=
PLAYORDER=
